<?xml version="1.0" standalone="no"?>
<!DOCTYPE svg PUBLIC "-//W3C//DTD SVG 20010904//EN"
 "http://www.w3.org/TR/2001/REC-SVG-20010904/DTD/svg10.dtd">
<svg version="1.0" xmlns="http://www.w3.org/2000/svg"
 width="128.000000pt" height="128.000000pt" viewBox="0 0 128.000000 128.000000"
 preserveAspectRatio="xMidYMid meet">

<g transform="translate(0.000000,128.000000) scale(0.100000,-0.100000)"
fill="#000000" stroke="none">
<path d="M690 966 c-55 -14 -113 -49 -139 -81 -16 -22 -24 -24 -68 -18 -29 3
-66 0 -86 -6 -48 -16 -104 -81 -119 -137 -9 -32 -20 -50 -39 -59 -93 -49 -133
-179 -84 -275 21 -40 79 -87 122 -99 55 -16 738 -13 781 3 49 17 99 71 117
127 15 46 15 53 0 100 -20 59 -69 112 -119 129 -35 11 -36 13 -36 63 0 68 -35
141 -90 190 -70 64 -156 86 -240 63z m156 -68 c86 -40 136 -141 115 -231 -15
-65 -14 -69 9 -62 32 10 97 -13 124 -45 52 -63 41 -154 -23 -197 -34 -23 -36
-23 -409 -23 -358 0 -376 1 -407 20 -61 38 -83 131 -47 199 17 31 60 62 105
75 12 4 17 16 17 46 0 60 24 98 75 121 46 20 81 18 121 -6 19 -12 23 -9 55 33
65 88 169 115 265 70z"/>
<path d="M646 785 c-42 -15 -62 -37 -71 -77 -8 -34 0 -48 26 -48 14 0 21 9 26
30 10 51 69 68 97 28 22 -30 21 -30 -24 -83 -42 -48 -54 -77 -48 -116 5 -38
41 -32 49 8 3 18 21 49 38 69 44 50 55 76 47 117 -12 63 -74 95 -140 72z"/>
<path d="M655 446 c-27 -19 -13 -66 20 -66 25 0 51 32 40 50 -13 22 -42 29
-60 16z"/>
</g>
</svg>
